<?xml version="1.0" standalone="no"?><!DOCTYPE svg PUBLIC "-//W3C//DTD SVG 1.1//EN" "http://www.w3.org/Graphics/SVG/1.1/DTD/svg11.dtd"><svg t="1589266198986" class="icon" viewBox="0 0 1024 1024" version="1.1" xmlns="http://www.w3.org/2000/svg" p-id="7374" width="32" height="32" xmlns:xlink="http://www.w3.org/1999/xlink"><defs><style type="text/css"></style></defs><path d="M168.6 216.4s-27.2 305.5 50.6 455.7C309 845.4 514.6 942.2 514.6 942.2s205.6-96.7 295.4-270c77.8-150.2 50.6-455.7 50.6-455.7l-346-135-346 134.9z" fill="#91DDFF" p-id="7375"></path><path d="M787.5 187.9c4.2 90.7 5.9 293.7-53.5 408.3-69.3 124.3-198.1 231.1-324.3 282.2 58.2 41.4 104.9 63.9 104.9 63.9S720.2 845.5 810 672.2c77.8-150.2 50.6-455.7 50.6-455.7l-73.1-28.6z" fill="#52C7FC" p-id="7376"></path><path d="M513.1 967.5c-3.2-0.2-6.4-1-9.3-2.4 0 0-211.8-97.4-307.1-281.3-42.7-82.4-54.3-198.3-57.3-295s4-174.6 4-174.6c0.9-9.6 7.1-17.8 16-21.3l346-135c5.9-2.3 12.5-2.3 18.4 0l346 135c9 3.5 15.2 11.8 16 21.3 0 0 6.9 77.8 4 174.6s-14.6 212.6-57.3 295c-95.3 183.9-307.1 281.3-307.1 281.3-3.8 1.8-8.1 2.6-12.3 2.4z m1.5-54c28.4-14.5 195.6-103.7 272.9-253 35.1-67.8 48.8-179.8 51.7-273.3 2.6-85.1-2.5-141.4-3.5-153.3L514.6 108.6 193.5 233.9c-1 11.9-6.1 68.2-3.5 153.3 2.9 93.5 16.6 205.5 51.7 273.3 77.4 149.3 244.6 238.5 272.9 253z" fill="#444852" p-id="7377"></path></svg>