<?xml version="1.0" standalone="no"?><!DOCTYPE svg PUBLIC "-//W3C//DTD SVG 1.1//EN" "http://www.w3.org/Graphics/SVG/1.1/DTD/svg11.dtd"><svg t="1589266187555" class="icon" viewBox="0 0 1024 1024" version="1.1" xmlns="http://www.w3.org/2000/svg" p-id="6981" width="32" height="32" xmlns:xlink="http://www.w3.org/1999/xlink"><defs><style type="text/css"></style></defs><path d="M516.6 763.7c-13.8 0.2-24.8 11.6-24.6 25.3v57.9c0 28.1-21.8 49.9-49.9 49.9s-49.9-21.8-49.9-49.9c0.2-13.8-10.8-25.1-24.6-25.3-13.8-0.2-25.1 10.8-25.3 24.6v0.7c0 54.9 45 99.9 99.9 99.9s99.9-45 99.9-99.9V789c0.2-13.8-10.8-25.1-24.6-25.3h-0.9zM516.6 464c-12.3 0.2-22.7 9.4-24.4 21.6-24.4 9.9-41.9 33.9-41.9 61.7 0 19.4 9.4 36.4 20.3 47.3s23 17.8 33.4 24.1c10.4 6.2 19.1 11.9 23.8 16.5 4.7 4.7 5.7 6.4 5.7 12 0 9.5-7.2 16.6-16.6 16.6s-16.6-7.2-16.6-16.6c0.2-13.8-10.8-25.1-24.6-25.3-13.8-0.2-25.1 10.8-25.3 24.6v0.7c0 27.8 17.5 51.7 41.9 61.7 1.9 13.7 14.6 23.2 28.2 21.2 11-1.6 19.7-10.2 21.2-21.2 24.4-9.9 41.9-33.9 41.9-61.7 0-19.4-9.4-36.4-20.3-47.3-10.9-10.9-23-17.8-33.4-24.1s-19.1-11.9-23.8-16.5c-4.7-4.7-5.7-6.4-5.7-12 0-9.5 7.2-16.6 16.6-16.6 9.5 0 16.6 7.2 16.6 16.6-0.2 13.8 10.8 25.1 24.6 25.3 13.8 0.2 25.1-10.8 25.3-24.6v-0.7c0-27.8-17.5-51.7-41.9-61.7-1.6-12.5-12.4-21.8-25-21.6z" fill="#444852" p-id="6982"></path><path d="M658.5 455.7s41.6-49.9 124.9-49.9 158.2 49.9 158.2 49.9S883.3 106 517 106 92.5 455.7 92.5 455.7s74.9-49.9 158.2-49.9 124.9 49.9 124.9 49.9 74.9-49.9 141.5-49.9 141.4 49.9 141.4 49.9z" fill="#91DDFF" p-id="6983"></path><path d="M536.4 106.6c45.4 4.5 160.1 35.8 225.7 225.4-68.9 7.5-103.5 48.7-103.5 48.7s-74.9-49.9-141.5-49.9-141.5 49.9-141.5 49.9-41.6-49.9-124.9-49.9c-51.5 0-99.6 19.1-129 33.7-22.3 51.9-29.2 91.2-29.2 91.2s74.9-49.9 158.2-49.9 124.9 49.9 124.9 49.9 74.9-49.9 141.5-49.9 141.5 49.9 141.5 49.9 41.6-49.9 124.9-49.9 158.2 49.9 158.2 49.9C877.5 181.9 676.8 109 536.4 106.6z" fill="#52C7FC" p-id="6984"></path><path d="M515.6 81.1C399.7 85.7 275.8 193 230.9 381.6c-36.9 3-70.4 13.6-96.7 24.6C149.5 356.5 179 283 259.3 216.5c18.7-15.1 7.5-45.2-16.5-44.4-5.6 0.2-11 2.3-15.3 6C94.2 288.4 67.8 451.6 67.8 451.6c-3.6 21.6 20.3 37 38.5 24.9 0 0 71.1-45.8 144.3-45.8s105.7 41 105.7 41c8.2 9.8 22.4 11.9 33 4.8 0 0 22.4-14.9 53.2-27.8 30.7-12.9 11.3-59-19.4-46-26.1 11-36 18-45.3 23.8-14.7-13.4-43.9-36.2-95.4-43.2C344.1 161.1 481 131 517 131c33 0 151.8 25.4 218.1 200 11 32.8 60.2 14.1 46.7-17.7-25.3-66.6-58.1-114.6-92.5-149.4 72.7 31.4 122.2 81 156.8 131.1 28.2 40.8 45.7 81.3 56.3 112.1-31.2-13.3-73.2-26.4-119-26.4-71.6 0-109 29.1-126.8 45.2-16.8-10.8-58.2-34-114.6-41.6v-95.2c0.5-33.8-50.4-33.8-49.9 0v116.5c0 13.8 11.2 25 25 25 54.1 0 127.7 45.8 127.7 45.8 10.6 7.1 24.9 5 33-4.8 0 0 32.4-41 105.7-41s144.3 45.8 144.3 45.8c18.2 12.1 42.1-3.3 38.5-24.9 0 0-15.3-92.6-79-184.9C810 157.9 692.8 81.2 515.6 81.1z" fill="#444852" p-id="6985"></path></svg>